<svg width="60" height="60" xmlns="http://www.w3.org/2000/svg"><path d="M29.868.593C13.516.593.198 13.913.198 30.263c0 16.352 13.318 29.671 29.67 29.671 16.352 0 29.67-13.319 29.67-29.67 0-16.352-13.252-29.67-29.67-29.67zm0 58.022c-15.626 0-28.352-12.725-28.352-28.351 0-15.627 12.726-28.352 28.352-28.352 15.627 0 28.352 12.725 28.352 28.352 0 15.626-12.725 28.351-28.352 28.351zm0-53.802C15.824 4.813 4.352 16.22 4.352 30.33c0 14.044 11.406 25.516 25.516 25.516 14.11 0 25.517-11.538 25.517-25.582S43.978 4.814 29.868 4.814zm0 49.649C16.55 54.462 5.67 43.648 5.67 30.264c0-13.319 10.814-24.198 24.198-24.198 13.385 0 24.198 10.88 24.198 24.198S43.253 54.462 29.868 54.462zm-.198-39.957c.396 0 .66-.263.66-.659V9.231c0-.396-.264-.66-.66-.66-.395 0-.659.264-.659.66v4.615c0 .396.264.66.66.66zm-8.175 2.308c.131 0 .197 0 .33-.066.329-.198.395-.593.263-.923l-2.308-4.022c-.198-.33-.593-.395-.923-.264-.33.198-.395.594-.264.924l2.308 4.022c.132.197.33.33.594.33zm-5.605 4.88l-4.022-2.308c-.33-.198-.725-.066-.923.263-.198.33-.066.726.264.923l4.022 2.308c.132.066.198.066.33.066a.787.787 0 0 0 .593-.33c.132-.33.066-.725-.264-.923zm-2.044 8.637c0-.396-.264-.66-.66-.66H8.572c-.395 0-.659.264-.659.66 0 .395.264.659.66.659h4.615c.395 0 .66-.264.66-.66zm1.253 7.78l-4.022 2.308c-.33.197-.396.593-.264.923.132.197.33.33.594.33.131 0 .197 0 .33-.067l4.021-2.307c.33-.198.396-.594.264-.923-.198-.33-.593-.462-.923-.264zm6.791 6.066c-.33-.198-.725-.066-.923.264l-2.308 4.022c-.197.33-.066.725.264.923.132.066.198.066.33.066a.787.787 0 0 0 .593-.33l2.308-4.022c.198-.33.066-.725-.264-.923zm7.78 1.978c-.395 0-.659.264-.659.66v4.615c0 .395.264.659.66.659.395 0 .659-.264.659-.66v-4.615c0-.395-.264-.66-.66-.66zm8.835-1.78c-.197-.33-.593-.396-.923-.264-.33.198-.395.593-.263.923l2.307 4.022c.132.198.33.33.594.33.132 0 .198 0 .33-.066.33-.198.395-.594.263-.923l-2.308-4.022zm9.89-3.89l-4.021-2.308c-.33-.198-.726-.066-.923.264-.198.33-.066.725.263.923l4.022 2.307a.594.594 0 0 0 .33.066.787.787 0 0 0 .593-.33c.198-.33.066-.725-.263-.922zM50.77 29.67h-4.615c-.396 0-.66.264-.66.66 0 .395.264.659.66.659h4.615c.396 0 .66-.264.66-.66 0-.395-.264-.659-.66-.659zm-6.791-6.79c.132 0 .198 0 .33-.067l4.022-2.308c.33-.197.395-.593.263-.923-.197-.33-.593-.395-.923-.263l-4.022 2.307c-.33.198-.395.594-.263.923.197.198.395.33.593.33zm-3.297-11.21c-.33-.197-.725-.066-.923.264l-2.307 4.022c-.198.33-.066.725.263.923.132.066.198.066.33.066a.787.787 0 0 0 .593-.33l2.308-4.022c.198-.33.066-.725-.264-.923zm-6.197 4.418c-.33-.132-.726.066-.858.396l-3.692 11.472h-.066c-.593 0-1.12.264-1.516.593l-6.528-3.89c-.33-.197-.725-.066-.923.198-.198.33-.066.725.198.923l6.527 3.89c-.066.198-.066.33-.066.528 0 1.253.99 2.307 2.308 2.307 1.319 0 2.308-.989 2.308-2.307 0-.791-.396-1.45-.99-1.846l3.76-11.407c.065-.396-.133-.725-.462-.857z" fill="#565A5C"/></svg>