<svg width="60" height="51" xmlns="http://www.w3.org/2000/svg"><g fill="#565A5C"><path d="M17.705 41.311a2.95 2.95 0 1 0 0 5.902 2.95 2.95 0 0 0 0-5.902zm0 3.935a.984.984 0 1 1 0-1.967.984.984 0 0 1 0 1.967zm28.525-3.935a2.95 2.95 0 1 0 0 5.902 2.95 2.95 0 0 0 0-5.902zm0 3.935a.984.984 0 1 1 0-1.967.984.984 0 0 1 0 1.967zM2.951 15.738h1.967v1.967H2.951zM0 19.672h1.967v1.967H0zm48.197-13.77h5.902v1.967h-5.902zm-3.935 0h1.967v1.967h-1.967zM31.475 0h9.836v1.967h-9.836zm-3.934 0h1.967v1.967h-1.967z"/><path d="M59.016 50.164v-1.967h-8.4a5.876 5.876 0 0 0 1.486-3.345l6.423-3.67c.045-.032.088-.067.128-.106a.913.913 0 0 0 .099-.077.969.969 0 0 0 .179-.267c.005-.009.012-.015.016-.023a.984.984 0 0 0 .07-.35c0-.011.006-.02.006-.031v-8.853a.824.824 0 0 0-.017-.085.68.68 0 0 0 0-.077L57.038 19.51a.383.383 0 0 0-.015-.043v-.034l-.984-3.934a.984.984 0 0 0-.957-.745H43.151a2.931 2.931 0 0 0-.737-1.272l-6.716-6.716a2.93 2.93 0 0 0-2.086-.864H9.836a.984.984 0 0 0-.984.983v3.935H0v1.967h8.852v2.95H6.885v1.968h1.967v1.967H3.934v1.967h4.918v8.853a.984.984 0 0 0-.983.983v8.853c0 .02.01.038.012.06a.984.984 0 0 0 .053.26c.009.032.02.063.032.093.046.103.11.197.188.278l3.667 3.667a5.874 5.874 0 0 0 1.497 3.51H0v1.968h59.016zm-18.344-7.869h-17.41a5.837 5.837 0 0 0-.454-.984h18.319a5.837 5.837 0 0 0-.455.984zm-17.065 1.967h16.72a5.875 5.875 0 0 0 1.516 3.935H22.092a5.871 5.871 0 0 0 1.515-3.935zm18.688 0a3.934 3.934 0 1 1 7.869 0 3.934 3.934 0 0 1-7.869 0zm9.618-1.573a5.848 5.848 0 0 0-.58-1.378h2.996l-2.416 1.378zm4.958-12.197h-9.658v-9.836h8.02l1.638 9.836zm-2.065-11.803H46.23a.984.984 0 0 0-.984.983v11.803c0 .544.44.984.984.984h10.82v1.967h-2.952v1.967h2.951v2.951h-7.564a5.88 5.88 0 0 0-6.511 0H20.96a5.88 5.88 0 0 0-6.512 0H9.836V35.41h3.934v-1.967H9.836v-.984h32.46c.542 0 .983-.44.983-.984V16.721h11.035l.492 1.968zm-43.986 2.95h7.869v-1.967h-7.87v-1.967h8.853v-1.967H10.82v-2.951h4.918V10.82H10.82V7.869h22.792c.26 0 .51.104.695.288l6.716 6.716a.984.984 0 0 1 .288.697v14.922H10.82v-8.853zm1.782 19.672c-.174.3-.32.613-.438.938l-.937-.938h1.375zm1.168 2.951a3.934 3.934 0 1 1 7.87 0 3.934 3.934 0 0 1-7.87 0z"/></g></svg>