<?xml version="1.0" encoding="UTF-8"?>
<svg version="1.1" viewBox="0 0 202 210" xmlns="http://www.w3.org/2000/svg" xmlns:xlink="http://www.w3.org/1999/xlink">
<title>file search</title>
<desc>Created with Sketch.</desc>
<defs>
<rect id="b" x=".16685" y=".22247" width="44.428" height="29.949"/>
<rect id="a" x=".16685" y=".12977" width="44.428" height="29.949"/>
<linearGradient id="f" y1="50%" y2="50%">
<stop stop-color="#808080" stop-opacity=".25" offset="0"/>
<stop stop-color="#808080" stop-opacity=".12" offset=".54"/>
<stop stop-color="#808080" stop-opacity=".1" offset="1"/>
</linearGradient>
<linearGradient id="e" x1="50%" x2="50%" y1="100%" y2=".0014034%">
<stop stop-color="#B3B3B3" stop-opacity=".25" offset="0"/>
<stop stop-color="#B3B3B3" stop-opacity=".1" offset=".54"/>
<stop stop-color="#B3B3B3" stop-opacity=".05" offset="1"/>
</linearGradient>
</defs>
<g fill="none" fill-rule="evenodd">
<g transform="translate(-618 -418)">
<g transform="translate(618 418)">
<g transform="translate(0 28.291)" fill="#F2F2F2" fill-rule="nonzero">
<rect transform="translate(60.955 87.884) rotate(-5) translate(-60.955 -87.884)" x="7.2635" y="4.3842" width="107.38" height="167"/>
</g>
<rect x="70.139" y="19.438" width="46.186" height="1.4429" fill="#E0E0E0" fill-rule="nonzero"/>
<rect x="77.354" y="60.575" width="46.186" height="1.4429" fill="#E0E0E0" fill-rule="nonzero"/>
<rect x="78.438" y="64.543" width="46.186" height="1.4429" fill="#E0E0E0" fill-rule="nonzero"/>
<rect x="80.604" y="68.513" width="46.186" height="1.4429" fill="#E0E0E0" fill-rule="nonzero"/>
<rect x="77.354" y="124.44" width="46.186" height="1.4429" fill="#E0E0E0" fill-rule="nonzero"/>
<rect x="78.438" y="128.41" width="46.186" height="1.4429" fill="#E0E0E0" fill-rule="nonzero"/>
<rect x="80.604" y="132.38" width="46.186" height="1.4429" fill="#E0E0E0" fill-rule="nonzero"/>
<g transform="translate(74.919 68.593)">
<mask id="d" fill="white">
<use xlink:href="#b"/>
</mask>
<g fill="#6C63FF" fill-rule="nonzero" mask="url(#d)" opacity=".4">
<g transform="translate(-60.56 -17.612)">
<polygon points="1.653 27.997 12.841 10.675 17.532 18.251 27.635 7.7894 36.296 18.251 43.872 2.7376 63.356 33.768 0.21011 31.602"/>
<circle cx="10.314" cy="3.4575" r="3.2474"/>
</g>
</g>
</g>
<g transform="translate(74.919 132.55)">
<mask id="c" fill="white">
<use xlink:href="#a"/>
</mask>
<g fill="#BDBDBD" fill-rule="nonzero" mask="url(#c)" opacity=".4">
<g transform="translate(-60.56 -17.612)">
<polygon points="1.653 27.904 12.841 10.583 17.532 18.162 27.635 7.6967 36.296 18.162 43.872 2.6449 63.356 33.676 0.21011 31.513"/>
<circle cx="10.314" cy="3.3679" r="3.2474"/>
</g>
</g>
</g>
<g transform="translate(24.864)" fill="url(#f)" fill-rule="nonzero" opacity=".5">
<rect transform="translate(86.401 104.95) rotate(-78.76) translate(-86.401 -104.95)" x="-6.6943" y="35.669" width="186.19" height="138.56"/>
</g>
<rect transform="translate(111.05 104.17) rotate(-78.76) translate(-111.05 -104.17)" x="21.204" y="37.057" width="179.7" height="134.23" fill="#fff" fill-rule="nonzero"/>
<g transform="translate(113.23 98.873)" fill-rule="nonzero">
<path d="m58.056 11.804c-6.2856-6.5393-14.943-10.265-24.012-10.333-9.0689-0.068306-17.782 3.5266-24.165 9.9705-12.74 12.847-12.956 33.766-0.49449 46.886 11.304 11.901 29.539 13.914 43.165 4.7648l24.334 25.317c0.62736 0.65236 1.6646 0.67267 2.317 0.045358l6.0634-5.8318c0.65218-0.62753 0.67248-1.665 0.045346-2.3176l-24.327-25.314c9.6283-13.199 8.3947-31.407-2.9259-43.186zm-7.5793 40.704c-9.5857 9.2179-24.827 8.9177-34.043-0.67036-9.2156-9.5881-8.9159-24.833 0.66936-34.052 9.5853-9.2183 24.827-8.9189 34.043 0.66873 4.426 4.6044 6.842 10.779 6.7164 17.165-0.12554 6.3863-2.7823 12.461-7.3858 16.888z" fill="url(#e)"/>
<path d="m60.529 10.568c-6.2858-6.5393-14.944-10.265-24.013-10.333-9.0691-0.068306-17.782 3.5266-24.166 9.9705-12.74 12.847-12.956 33.766-0.4945 46.886 11.304 11.9 29.541 13.912 43.166 4.7626l24.332 25.319c0.62738 0.65236 1.6646 0.67267 2.317 0.045358l6.0636-5.8318c0.6522-0.62753 0.6725-1.665 0.045347-2.3176l-24.334-25.317c9.6297-13.196 8.3997-31.403-2.9173-43.183zm-7.5795 40.687c-9.586 9.2179-24.828 8.9177-34.043-0.67036-9.2158-9.5881-8.9161-24.833 0.66938-34.052 9.5855-9.2183 24.827-8.9189 34.043 0.66873 4.4261 4.6044 6.8422 10.779 6.7166 17.165-0.12554 6.3863-2.7824 12.461-7.386 16.888z" fill="#3E90D6"/>
</g>
<g transform="translate(120.27 55.918) rotate(11) translate(-26.5 -17)" fill-rule="nonzero" opacity=".6">
<path d="m52.878 28.936c0 2.6433-2.1431 4.7858-4.7861 4.7858-0.039871 0-0.079628-4.874e-4 -0.11927-0.0014567l-43.072 0.0014567c-2.5881-0.064586-4.6668-2.1822-4.6668-4.7858v-23.929c0-2.603 2.0789-4.721 4.6668-4.784l43.072-0.0014425c0.039638 4.8763e-4 0.079395 0 0.11927 0 2.643 0 4.7861 2.1428 4.7861 4.7855v23.929z" fill="#A9ACAD"/>
<polyline points="46.405 25.844 46.405 28.117 27.918 28.117 27.918 25.929 42.373 8.2566 28.904 8.2566 28.904 5.9834 45.804 5.9834 45.804 7.9136 31.177 25.844 46.405 25.844" fill="#FFFFFE"/>
<path d="m22.963 12.546c-0.32906-0.94362-0.79315-1.78-1.3941-2.5089-0.60035-0.7295-1.3295-1.3156-2.1873-1.7593-0.85773-0.44308-1.8304-0.66462-2.9171-0.66462-1.1151 0-2.102 0.22154-2.9597 0.66462-0.85773 0.44369-1.5869 1.0298-2.1876 1.7593-0.60066 0.72888-1.0796 1.5727-1.4368 2.5305-0.35842 0.95815-0.59386 1.9373-0.70818 2.9384h14.327c-0.029044-1.0298-0.20794-2.0164-0.53639-2.96zm-13.383 8.2572c0.27159 1.0444 0.70756 1.9806 1.3088 2.8092 0.60035 0.83023 1.358 1.5171 2.2732 2.0597 0.91458 0.54288 2.0161 0.81478 3.3027 0.81478 1.9731 0 3.5174-0.51414 4.6328-1.5443 1.1151-1.0295 1.8872-2.4023 2.3158-4.1181h2.703c-0.57254 2.5166-1.6237 4.4614-3.1531 5.8345-1.5298 1.3713-3.6963 2.0581-6.4985 2.0581-1.7445 0-3.2532-0.30836-4.5253-0.9223-1.273-0.61487-2.3096-1.4587-3.1099-2.5309-0.80088-1.0719-1.3941-2.3161-1.7803-3.7312-0.38561-1.4164-0.57903-2.9094-0.57903-4.4827 0-1.4587 0.19342-2.888 0.57903-4.2896 0.38622-1.4006 0.97947-2.652 1.7803-3.7529 0.80026-1.1009 1.8369-1.988 3.1099-2.6597 1.2721-0.67141 2.7808-1.0079 4.5253-1.0079 1.7729 0 3.2885 0.35749 4.5466 1.0719 1.2582 0.7156 2.2803 1.6518 3.0672 2.8099 0.78635 1.1581 1.3515 2.4879 1.6944 3.9889 0.34328 1.5016 0.48572 3.0243 0.42855 4.5689h-17.029c0 0.97174 0.13564 1.9806 0.40754 3.0237z" fill="#FFFFFE"/>
</g>
</g>
</g>
</g>
</svg>
