<svg width="60" height="44" xmlns="http://www.w3.org/2000/svg"><g fill="#565A5C"><path d="M57.511 10.35l-5.8 1.2a8.079 8.079 0 0 0-.734-.61c-.257-3.853-8.966-5.297-13.194-5.77-.681-1.719-3.028-2.803-5.638-3.183C31.826 1.259 31.007.74 30.04.74s-1.787.52-2.107 1.246c-2.61.38-4.956 1.465-5.637 3.183C18.064 5.643 9.35 7.09 9.1 10.945a8.34 8.34 0 0 0-.749.617L2.49 10.348l-2 4.708 3.565 1.293.782-2.133 2.003.4c0 .014-.003.028-.003.041 0 1.24.65 2.346 1.779 3.316v19.543c0 3.747 12.492 5.742 21.51 5.742s21.511-1.995 21.511-5.742v-19.69c1.024-.933 1.605-1.991 1.605-3.168 0-.019-.004-.037-.004-.057l1.926-.384.782 2.133 3.566-1.293-2-4.708zM28.095 3.608c.39.571 1.11.96 1.944.96.834 0 1.554-.389 1.944-.96 2.923.408 4.708 1.676 4.708 2.6 0 1.115-2.592 2.734-6.652 2.734-4.06 0-6.652-1.62-6.652-2.734 0-.924 1.785-2.192 4.708-2.6zm-5.923 3.227c.555 2.438 4.31 3.749 7.866 3.749 3.557 0 7.313-1.31 7.867-3.749 8.119.938 11.792 3.044 11.792 4.278 0 1.923-7.658 4.718-19.658 4.718-12.001 0-19.659-2.796-19.659-4.719 0-1.234 3.675-3.339 11.792-4.277zM50.344 37.49c-.436 1.46-8.414 4.129-20.219 4.129-11.827 0-19.814-2.679-20.217-4.101v-18.61c4.275 2.607 12.37 3.981 20.131 3.981 7.871 0 16.08-1.414 20.305-4.093V37.49zM30.039 21.248c-12.912 0-21.91-3.473-21.91-6.59 0-.664.492-1.406 1.392-2.125 2.26 3.591 13.015 4.938 20.518 4.938s18.256-1.346 20.517-4.937c.9.718 1.393 1.455 1.393 2.124 0 3.118-8.998 6.59-21.91 6.59z"/><path d="M13.289 34.387v-9.31c0-.454-.29-.82-.647-.82-.357 0-.646.366-.646.82v9.844c0 .303.131.58.341.723.18.121 4.521 2.968 17.653 3.241H30c.353 0 .641-.359.647-.806.006-.455-.279-.828-.636-.835-10.757-.223-15.489-2.225-16.722-2.857z"/></g></svg>