<svg xmlns="http://www.w3.org/2000/svg" height="28" width="120" viewBox="0 0 2181.23 509.23"><path fill="#36b66f" d="M695.34 509.23H69.69A69.69 69.69 0 010 439.53V82.62a69.69 69.69 0 0169.69-69.69h625.65a69.69 69.69 0 0169.69 69.7v356.92a69.69 69.69 0 01-69.7 69.69"/><path fill="#fff" d="M326.66 235.28c-.43-12.89-2.48-24.71-6.13-35.46a78.25 78.25 0 00-16.44-28.05c-7.31-7.95-16.44-14.19-27.4-18.7-10.97-4.51-23.76-6.77-38.37-6.77-14.19 0-27.2 2.69-39.01 8.06-11.83 5.38-21.82 12.36-29.99 20.95a97.04 97.04 0 00-19.02 28.7c-4.51 10.54-6.77 20.96-6.77 31.27zm-183.13 46.43c0 13.33 2.9 25.48 8.7 36.44a90.53 90.53 0 0022.9 28.04c9.44 7.74 20.41 13.77 32.88 18.06a117.82 117.82 0 0038.69 6.44c18.05 0 33.74-4.18 47.07-12.57 13.32-8.38 25.57-19.44 36.76-33.2l43.84 33.52C342.14 400.14 297 421 238.97 421c-24.09 0-45.9-4.09-65.45-12.25-19.57-8.16-36.11-19.45-49.66-33.85-13.54-14.4-23.97-31.38-31.27-50.94-7.31-19.56-10.96-40.73-10.96-63.52 0-22.78 3.97-43.94 11.93-63.51 7.95-19.56 18.9-36.54 32.88-50.94 13.97-14.4 30.63-25.68 49.98-33.85 19.34-8.17 40.4-12.26 63.19-12.26 27.08 0 49.97 4.74 68.67 14.18 18.7 9.46 34.07 21.83 46.1 37.08a146.65 146.65 0 0126.12 51.59 214.91 214.91 0 018.06 58.35v20.64H143.53m280.5 79.3l173.46-203.11H429.83v-50.3H668.4v51.59L493.67 362.96h183.77v50.3H424.03v-52.24M1083 189c-10.75-11.17-22.03-19.67-33.85-25.47-11.83-5.8-25.9-8.7-42.24-8.7-15.9 0-29.77 2.9-41.59 8.7a84.71 84.71 0 00-29.66 23.86c-7.96 10.1-13.97 21.71-18.05 34.82a136.65 136.65 0 00-6.13 40.95c0 14.18 2.36 27.62 7.1 40.3a101.22 101.22 0 0019.98 33.2 91.75 91.75 0 0030.95 22.25c12.03 5.38 25.58 8.06 40.63 8.06 16.33 0 30.3-2.9 41.91-8.7 11.6-5.8 22.35-14.29 32.24-25.48l41.27 41.27c-15.05 16.77-32.56 28.8-52.55 36.12-19.99 7.3-41.17 10.96-63.52 10.96-23.64 0-45.24-3.87-64.8-11.6-19.57-7.75-36.43-18.6-50.62-32.57-14.19-13.97-25.15-30.74-32.89-50.3-7.73-19.56-11.6-41.16-11.6-64.8s3.87-45.35 11.6-65.13c7.74-19.77 18.6-36.76 32.57-50.94 13.96-14.19 30.73-25.25 50.3-33.2 19.55-7.96 41.36-11.94 65.44-11.94 22.35 0 43.74 3.98 64.16 11.93a141.28 141.28 0 0153.2 36.43L1083 189m303.99 114.46c-4.74 13.11-11.4 24.29-19.99 33.53-8.61 9.24-19.13 16.55-31.6 21.92-12.47 5.38-26.43 8.06-41.91 8.06-15.48 0-29.45-2.68-41.92-8.06-12.47-5.37-23-12.68-31.59-21.92-8.6-9.24-15.27-20.42-19.99-33.53-4.74-13.11-7.1-27.4-7.1-42.89 0-15.47 2.36-29.76 7.1-42.88 4.72-13.1 11.39-24.27 19.99-33.52 8.6-9.24 19.12-16.55 31.6-21.93 12.46-5.37 26.43-8.06 41.9-8.06 15.49 0 29.45 2.7 41.92 8.06 12.47 5.38 22.99 12.69 31.6 21.93 8.59 9.25 15.25 20.42 19.99 33.52 4.73 13.12 7.09 27.41 7.09 42.88 0 15.48-2.36 29.78-7.1 42.89zm7.09-195.7v26.31a164.05 164.05 0 00-36.76-21.48c-19.77-8.38-41.05-12.57-63.83-12.57-22.8 0-44.07 4.19-63.84 12.57-19.78 8.38-36.97 19.89-51.59 34.5a162.93 162.93 0 00-34.5 50.94c-8.37 19.34-12.57 40.2-12.57 62.54 0 22.36 4.2 43.32 12.58 62.88 8.38 19.56 19.88 36.54 34.5 50.94 14.6 14.4 31.8 25.79 51.58 34.17 19.77 8.38 41.05 12.58 63.84 12.58 22.78 0 44.06-4.2 63.83-12.58a167.48 167.48 0 0036.76-21.33v26.17h58.04V107.75h-58.04m504.72 127.68c-.44-12.9-2.48-24.72-6.13-35.47a78.15 78.15 0 00-16.44-28.05c-7.31-7.95-16.44-14.18-27.4-18.7-10.96-4.51-23.76-6.77-38.38-6.77-14.18 0-27.18 2.7-39.01 8.06-11.83 5.38-21.81 12.36-29.97 20.96a96.93 96.93 0 00-19.03 28.7c-4.52 10.53-6.77 20.95-6.77 31.27zm-183.13 46.43c0 13.32 2.9 25.47 8.7 36.43a90.5 90.5 0 0022.9 28.05c9.45 7.74 20.41 13.76 32.88 18.05a117.75 117.75 0 0038.69 6.45c18.05 0 33.75-4.2 47.08-12.57 13.3-8.39 25.56-19.45 36.75-33.21l43.85 33.53c-32.24 41.7-77.39 62.55-135.41 62.55-24.08 0-45.9-4.1-65.46-12.25-19.56-8.17-36.1-19.45-49.65-33.86-13.53-14.4-23.97-31.37-31.27-50.94-7.32-19.55-10.96-40.72-10.96-63.52 0-22.77 3.96-43.94 11.92-63.5 7.95-19.56 18.92-36.54 32.9-50.95 13.96-14.4 30.62-25.68 49.97-33.85 19.35-8.16 40.4-12.25 63.19-12.25 27.08 0 49.97 4.73 68.66 14.18 18.71 9.46 34.07 21.83 46.12 37.08a146.74 146.74 0 0126.11 51.59 214.85 214.85 0 018.07 58.35v20.64h-245.04m288.88-174.11h58.04v47.08h1.28a83 83 0 0115.48-22.25 103.85 103.85 0 0121.6-17.09 114.4 114.4 0 0126.12-11.28 99.75 99.75 0 0128.37-4.2c9.45 0 18.05 1.3 25.79 3.87l-2.57 62.55a173.08 173.08 0 00-14.19-3.22 79.7 79.7 0 00-14.2-1.3c-28.36 0-50.08 7.97-65.12 23.87-15.06 15.9-22.56 40.62-22.56 74.15V413.4h-58.04V107.75m-470.45 305.5V160.81h-41.89v-53.06h41.88V0h58.08v107.76H1643v53.06h-50.83v252.44h-58.08"/></svg>