<svg xmlns="http://www.w3.org/2000/svg" width="486" height="113"><g fill="none" fill-rule="evenodd"><g fill="#FFF"><path d="M458.293 22.365v16.798h.277c2.22-5.831 5.668-10.32 10.342-13.467 4.675-3.145 10.25-4.581 16.729-4.303v8.746c-3.981-.184-7.59.348-10.828 1.597-3.244 1.249-6.04 3.032-8.399 5.344-2.361 2.314-4.188 5.066-5.482 8.259-1.299 3.194-1.947 6.69-1.947 10.483v38.177h-8.745V22.365h8.053M427.961 43.605c-1.067-3.054-2.569-5.761-4.513-8.12-1.945-2.361-4.302-4.258-7.08-5.694-2.777-1.434-5.924-2.151-9.441-2.151-3.609 0-6.802.717-9.579 2.151-2.776 1.436-5.135 3.333-7.08 5.694-1.944 2.359-3.495 5.09-4.65 8.19a40.041 40.041 0 0 0-2.292 9.51h46.37c-.094-3.333-.673-6.526-1.735-9.58zm-43.315 26.724c.877 3.38 2.29 6.41 4.235 9.092 1.941 2.687 4.395 4.91 7.357 6.666 2.96 1.757 6.526 2.637 10.689 2.637 6.386 0 11.383-1.664 14.994-4.998 3.609-3.332 6.107-7.775 7.496-13.328h8.745c-1.85 8.145-5.252 14.439-10.201 18.883-4.954 4.438-11.965 6.661-21.034 6.661-5.647 0-10.53-.998-14.647-2.985-4.118-1.99-7.474-4.721-10.063-8.191-2.592-3.469-4.512-7.496-5.762-12.076-1.25-4.584-1.874-9.416-1.874-14.508 0-4.721.624-9.347 1.874-13.883 1.25-4.533 3.17-8.583 5.762-12.146 2.589-3.563 5.945-6.434 10.063-8.608 4.117-2.173 9-3.262 14.647-3.262 5.737 0 10.643 1.157 14.715 3.469 4.071 2.316 7.381 5.346 9.928 9.094 2.544 3.748 4.373 8.052 5.483 12.91a56.701 56.701 0 0 1 1.386 14.787h-55.113c0 3.145.44 6.41 1.32 9.786zM365.558 22.365v7.357h-14.576v48.311c0 2.869.393 5.117 1.181 6.733.783 1.621 2.752 2.525 5.899 2.708 2.5 0 4.998-.137 7.496-.414v7.355c-1.296 0-2.593.044-3.887.141-1.296.09-2.593.138-3.887.138-5.832 0-9.903-1.132-12.216-3.403-2.315-2.267-3.426-6.454-3.334-12.563V29.722h-12.492v-7.357h12.492V.847h8.748v21.518h14.576M310.583 54.85c-.555 1.019-1.62 1.759-3.193 2.221-1.576.464-2.962.787-4.164.972a258.972 258.972 0 0 1-11.454 1.736c-3.937.508-7.521 1.273-10.76 2.289-3.24 1.021-5.9 2.479-7.982 4.374-2.081 1.897-3.123 4.605-3.123 8.122 0 2.221.437 4.185 1.32 5.897a14.198 14.198 0 0 0 3.542 4.446c1.476 1.25 3.19 2.197 5.133 2.844a18.73 18.73 0 0 0 5.971.973c3.332 0 6.523-.507 9.578-1.53 3.055-1.017 5.714-2.495 7.981-4.439 2.269-1.943 4.071-4.304 5.416-7.082 1.34-2.775 2.012-5.922 2.012-9.441V54.85h-.277zm-43.73-21.381c1.478-3.052 3.491-5.552 6.037-7.495 2.547-1.943 5.532-3.378 8.956-4.303 3.422-.925 7.22-1.388 11.384-1.388 3.145 0 6.292.3 9.441.902 3.143.603 5.969 1.734 8.467 3.4 2.5 1.667 4.533 4.005 6.109 7.011 1.571 3.009 2.361 6.92 2.361 11.731v38.038c0 3.52 1.71 5.277 5.134 5.277 1.018 0 1.946-.187 2.778-.555v7.355a41.689 41.689 0 0 1-2.706.418c-.788.095-1.784.139-2.985.139-2.221 0-4.007-.298-5.347-.901-1.34-.601-2.382-1.459-3.122-2.57-.744-1.111-1.226-2.428-1.458-3.953-.233-1.532-.348-3.219-.348-5.068h-.278c-1.575 2.313-3.17 4.372-4.79 6.174a23.678 23.678 0 0 1-5.412 4.513c-1.991 1.204-4.26 2.131-6.802 2.778-2.548.645-5.58.97-9.094.97-3.332 0-6.456-.393-9.372-1.178-2.916-.784-5.462-2.036-7.634-3.75-2.177-1.712-3.887-3.887-5.137-6.525-1.25-2.637-1.874-5.761-1.874-9.372 0-4.996 1.111-8.906 3.332-11.729 2.221-2.822 5.157-4.975 8.815-6.455 3.653-1.48 7.775-2.521 12.355-3.124 4.58-.601 9.233-1.181 13.954-1.736 1.849-.183 3.47-.416 4.857-.694 1.39-.277 2.547-.763 3.47-1.458.925-.693 1.643-1.641 2.154-2.845.506-1.203.762-2.777.762-4.72 0-2.962-.487-5.39-1.458-7.289-.97-1.897-2.315-3.401-4.025-4.512-1.714-1.109-3.701-1.874-5.971-2.29-2.268-.417-4.697-.625-7.285-.625-5.555 0-10.091 1.319-13.605 3.956-3.521 2.639-5.37 6.872-5.555 12.703h-8.747c.279-4.164 1.157-7.775 2.639-10.83zM236.867 32.222c-3.24-3.055-7.774-4.582-13.603-4.582-4.166 0-7.824.88-10.97 2.638-3.147 1.759-5.76 4.073-7.843 6.941-2.082 2.87-3.656 6.132-4.72 9.787a39.77 39.77 0 0 0-1.597 11.176c0 3.796.532 7.519 1.597 11.174 1.064 3.66 2.638 6.92 4.72 9.79 2.083 2.87 4.696 5.185 7.843 6.941 3.146 1.757 6.804 2.637 10.97 2.637 2.681 0 5.225-.507 7.633-1.53a20.523 20.523 0 0 0 6.387-4.231c1.85-1.806 3.377-3.96 4.581-6.456 1.201-2.5 1.945-5.228 2.222-8.191h8.744c-1.201 8.7-4.394 15.479-9.578 20.336-5.185 4.861-11.847 7.29-19.989 7.29-5.463 0-10.299-.998-14.508-2.985-4.213-1.99-7.754-4.694-10.622-8.12-2.869-3.424-5.044-7.427-6.524-12.008-1.481-4.58-2.221-9.462-2.221-14.647 0-5.183.74-10.064 2.221-14.647 1.48-4.581 3.655-8.582 6.524-12.008 2.868-3.424 6.409-6.153 10.622-8.191 4.209-2.035 9.045-3.053 14.508-3.053 7.679 0 14.18 2.037 19.504 6.108 5.32 4.074 8.49 10.227 9.508 18.463h-8.745c-1.204-5.366-3.425-9.58-6.664-12.632"/></g><path fill="#7FB341" d="M171.139 96.65c0 8.555-6.936 15.489-15.49 15.489-.129 0-.258-.002-.386-.005l-139.4.005C7.487 111.93.759 105.076.759 96.65V19.205c0-8.425 6.728-15.28 15.104-15.483l139.4-.005c.128.002.257 0 .386 0 8.554 0 15.49 6.935 15.49 15.488V96.65z"/><path fill="#FFFFFE" d="M150.188 86.642v7.357H90.354v-7.08l46.783-57.197H93.546v-7.357h54.698v6.247l-47.34 58.03h49.284M74.319 43.605c-1.065-3.054-2.567-5.761-4.512-8.12-1.943-2.361-4.303-4.258-7.079-5.694-2.776-1.434-5.924-2.151-9.441-2.151-3.609 0-6.803.717-9.579 2.151-2.776 1.436-5.136 3.333-7.08 5.694-1.944 2.359-3.494 5.09-4.65 8.19a39.993 39.993 0 0 0-2.292 9.51h46.369c-.094-3.333-.673-6.526-1.736-9.58zM31.005 70.329c.879 3.38 2.29 6.41 4.236 9.092 1.943 2.687 4.395 4.91 7.357 6.666 2.96 1.757 6.525 2.637 10.689 2.637 6.386 0 11.384-1.664 14.994-4.998 3.609-3.332 6.108-7.775 7.495-13.328h8.748c-1.853 8.145-5.255 14.439-10.205 18.883-4.951 4.438-11.963 6.661-21.032 6.661-5.646 0-10.529-.998-14.646-2.985-4.12-1.99-7.475-4.721-10.065-8.191-2.592-3.469-4.512-7.496-5.762-12.076-1.248-4.584-1.874-9.416-1.874-14.508 0-4.721.626-9.347 1.874-13.883 1.25-4.533 3.17-8.583 5.762-12.146 2.59-3.563 5.945-6.434 10.065-8.608 4.117-2.173 9-3.262 14.646-3.262 5.738 0 10.643 1.157 14.715 3.469 4.072 2.316 7.38 5.346 9.927 9.094 2.545 3.748 4.374 8.052 5.484 12.91A56.66 56.66 0 0 1 84.8 60.543H29.686c0 3.145.439 6.41 1.319 9.786z"/></g></svg>